# AST/ASF file generated using VICON BodyLanguage
# -----------------------------------------------
:version 1.10
:name VICON
:units
  mass 1.0
  length 0.45
  angle deg
:documentation
   .ast/.asf automatically generated from VICON data using
   VICON BodyBuilder and BodyLanguage model FoxedUp or BRILLIANT.MOD
:root
   order TX TY TZ RX RY RZ
   axis XYZ
   position 0 0 0  
   orientation 0 0 0 
:bonedata
  begin
     id 1 
     name lhipjoint
     direction 0.690799 -0.707083 0.151096 
     length 2.54797 
     axis 0 0 0  XYZ
  end
  begin
     id 2 
     name lfemur
     direction 0.34202 -0.939693 0  
     length 7.21646  
     axis 0 0 20  XYZ
    dof rx ry rz
    limits (-160.0 20.0)
           (-70.0 70.0)
           (-60.0 70.0)
  end
  begin
     id 3 
     name ltibia
     direction 0.34202 -0.939693 0   
     length 8.16759   
     axis 0 0 20   XYZ
    dof rx
    limits (-10.0 170.0)
  end
  begin
     id 4 
     name lfoot
     direction 0.0487203 -0.133858 0.989802   
     length 1.93375   
     axis -90 7.62852e-016 20   XYZ
    dof rx rz
    limits (-45.0 90.0)
           (-70.0 20.0)
  end
  begin
     id 5 
     name ltoes
     direction 1.53453e-011 -4.21783e-011 1   
     length 0.979747   
     axis -90 7.62852e-016 20   XYZ
    dof rx
    limits (-90.0 20.0)
  end
  begin
     id 6 
     name rhipjoint
     direction -0.694693 -0.703425 0.150315   
     length 2.56122  
     axis 0 0 0  XYZ 
  end
  begin
     id 7 
     name rfemur
     direction -0.34202 -0.939693 0   
     length 7.36786   
     axis 0 0 -20   XYZ
    dof rx ry rz
    limits (-160.0 20.0)
           (-70.0 70.0)
           (-70.0 60.0)
  end
  begin
     id 8 
     name rtibia
     direction -0.34202 -0.939693 0   
     length 8.07288   
     axis 0 0 -20   XYZ
    dof rx
    limits (-10.0 170.0)
 end
 begin
     id 9 
     name rfoot
     direction -0.0428397 -0.117701 0.992125   
     length 1.88295  
     axis -90 -7.62852e-016 -20   XYZ
    dof rx rz
    limits (-45.0 90.0)
           (-20.0 70.0)
  end
  begin
     id 10 
     name rtoes
     direction -1.53456e-011 -4.2187e-011 1   
     length 0.955578   
     axis -90 -7.62852e-016 -20   XYZ
    dof rx
    limits (-90.0 20.0)
  end
  begin
     id 11 
     name lowerback
     direction 0.0288145 0.999398 -0.0193241   
     length 1.92149   
     axis 0 0 0   XYZ
    dof rx ry rz
    limits (-20.0 45.0)
           (-30.0 30.0)
           (-30.0 30.0)
  end
  begin
     id 12 
     name upperback
     direction 0.0233784 0.998099 0.0570278   
     length 1.90435   
     axis 0 0 0   XYZ
    dof rx ry rz
    limits (-20.0 45.0)
           (-30.0 30.0)
           (-30.0 30.0)
  end
  begin
     id 13 
     name thorax
     direction 0.0096694 0.997833 0.0650817   
     length 1.9111   
     axis 0 0 0   XYZ
    dof rx ry rz
    limits (-20.0 45.0)
           (-30.0 30.0)
           (-30.0 30.0)
  end
  begin
     id 14 
     name lowerneck
     direction 0.00516803 0.999916 0.0118722   
     length 1.74664   
     axis 0 0 0   XYZ
    dof rx ry rz
    limits (-20.0 45.0)
           (-30.0 30.0)
           (-30.0 30.0)
  end
  begin
     id 15 
     name upperneck
     direction -0.0510851 0.996117 -0.071696   
     length 1.68498   
     axis 0 0 0   XYZ
    dof rx ry rz
    limits (-20.0 45.0)
           (-30.0 30.0)
           (-30.0 30.0)
  end
  begin
     id 16
     name head
     direction -0.019188 0.999436 -0.0275702  
     length 1.83483  
     axis 0 0 0   XYZ
    dof rx ry rz
    limits (-20.0 45.0)
           (-30.0 30.0)
           (-30.0 30.0)
  end
  begin
     id 17 
     name lclavicle
     direction 0.967006 0.248456 -0.0562957  
     length 3.39395  
     axis 0 0 0   XYZ
    dof ry rz
    limits (-20.0 10.0)
           (0.0 20.0)
  end
  begin
     id 18 
     name lhumerus
     direction 1 -4.48962e-011 -5.62711e-019   
     length 5.24318   
     axis 180 -30 -90   XYZ
    dof rx ry rz
    limits (-60.0 90.0)
           (-90.0 90.0)
           (-90.0 90.0)
  end
  begin
     id 19
     name lradius
     direction 1 -4.48966e-011 7.90625e-027   
     length 2.98999   
     axis 180 -30 -90   XYZ
    dof rx
    limits (-10.0 170.0)
  end
  begin
     id 20
     name lwrist
     direction 1 -4.48959e-011 1.61068e-026   
     length 1.49499   
     axis -9.31229e-015 90 90   XYZ
    dof ry
    limits (-180.0 0.0)
 end
  begin
     id 21 
     name lhand
     direction 1 -4.49017e-011 3.22136e-026   
     length 0.726745   
     axis -2.0555e-014 90 90   XYZ
    dof rx rz
    limits (-90.0 90.0)
           (-45.0 45.0)
  end
  begin
     id 22 
     name lfingers
     direction 1 -4.4898e-011 6.44272e-026   
     length 0.58592   
     axis -4.11101e-014 90 90   XYZ
    dof rx
    limits (0.0 90.0)
  end
  begin
     id 23
     name lthumb
     direction 0.707107 -6.34922e-011 0.707107   
     length 0.841268   
     axis -90 45 2.85299e-015   XYZ
    dof rx rz
    limits (-45.0 45.0)
           (-45.0 45.0)
  end
  begin
     id 24 
     name rclavicle
     direction -0.972232 0.230238 0.0419005   
     length 3.40416  
     axis 0 0 0   XYZ 
    dof ry rz
    limits (-10.0 20.0)
           (-20.0 0.0)
  end
  begin
     id 25 
     name rhumerus
     direction -1 -4.48976e-011 2.48487e-027  
     length 5.37045   
     axis 180 30 90   XYZ
    dof rx ry rz
    limits (-90.0 60.0)
           (-90.0 90.0)
           (-90.0 90.0)
  end
  begin
     id 26 
     name rradius
     direction -1 -4.48942e-011 7.87951e-027   
     length 2.92792   
     axis 180 30 90   XYZ
    dof rx
    limits (-10.0 170.0)
  end
  begin
     id 27 
     name rwrist
     direction -1 -4.48969e-011 1.61068e-026   
     length 1.46396   
     axis -9.31229e-015 -90 -90   XYZ
    dof ry
    limits (-180.0 0.0)
  end
  begin
     id 28
     name rhand
     direction -1 -4.49043e-011 3.22136e-026   
     length 0.784497   
     axis -2.0555e-014 -90 -90   XYZ
    dof rx rz
    limits (-90.0 90.0)
           (-45.0 45.0)
  end
  begin
     id 29
     name rfingers
     direction -1 -4.48823e-011 6.44272e-026   
     length 0.632482   
     axis -4.11101e-014 -90 -90   XYZ
    dof rx
    limits (0.0 90.0)
  end
  begin
     id 30
     name rthumb
     direction -0.707107 -6.34923e-011 0.707107   
     length 0.908121   
     axis -90 -45 -2.85299e-015   XYZ
    dof rx rz
    limits (-45.0 45.0)
           (-45.0 45.0)
  end
:hierarchy
  begin
    root lhipjoint rhipjoint lowerback
    lhipjoint lfemur
    lfemur ltibia
    ltibia lfoot
    lfoot ltoes
    rhipjoint rfemur
    rfemur rtibia
    rtibia rfoot
    rfoot rtoes
    lowerback upperback
    upperback thorax
    thorax lowerneck lclavicle rclavicle
    lowerneck upperneck
    upperneck head
    lclavicle lhumerus
    lhumerus lradius
    lradius lwrist
    lwrist lhand lthumb
    lhand lfingers
    rclavicle rhumerus
    rhumerus rradius
    rradius rwrist
    rwrist rhand rthumb
    rhand rfingers
  end

#!OML:ASF E:\Style6\Style6.ASF
:FULLY-SPECIFIED
:DEGREES
1851
root 0.694095 15.4059 -2.5574 33.5862 19.8216 8.30378
lowerback 35.5581 -1.90066 9.19084
upperback 10.9148 1.96535 9.59071
thorax -5.85713 0.914427 4.62493
lowerneck 0.255965 -6.30537 4.70497
upperneck -32.1329 -11.4221 -7.8332
head -11.177 -5.1557 -2.56035
rclavicle 9.54166e-015 -6.2816e-014
rhumerus 62.9703 -0.729171 -67.9778
rradius 96.5738
rwrist -57.0176
rhand -35.6288 -16.9563
rfingers 7.12502
rthumb -8.75163 -46.7548
lclavicle 9.54166e-015 -6.2816e-014
lhumerus -45.6403 -4.60076 72.6919
lradius 117.165
lwrist 19.3128
lhand -33.8961 38.5653
lfingers 7.12502
lthumb -7.07924 68.4269
rfemur -79.4274 -23.0171 20.6874
rtibia 72.7011
rfoot -17.6663 -11.2191
rtoes -15.5492
lfemur -77.8461 -8.6914 -28.8301
ltibia 62.0414
lfoot -9.61103 -9.71786
ltoes -3.36762
1852
root 0.715556 15.3961 -2.56512 33.6819 19.2811 8.46568
lowerback 35.6799 -1.96067 9.16285
upperback 10.8591 1.90284 9.60557
thorax -5.96206 0.877958 4.68011
lowerneck -0.224272 -6.22021 4.76104
upperneck -31.7026 -11.3425 -8.11263
head -10.9276 -5.12705 -2.69666
rclavicle -4.13472e-014 -4.77083e-014
rhumerus 63.0116 -0.93168 -67.7383
rradius 96.5142
rwrist -56.9368
rhand -35.6959 -16.7628
rfingers 7.12502
rthumb -8.81639 -46.5586
lclavicle -4.13472e-014 -4.77083e-014
lhumerus -45.8605 -4.49905 72.7337
lradius 117.234
lwrist 19.4
lhand -33.9836 38.2024
lfingers 7.12502
lthumb -7.16369 68.0612
rfemur -79.6636 -22.8858 20.3159
rtibia 72.7406
rfoot -17.5007 -11.0559
rtoes -15.7094
lfemur -77.9063 -8.56141 -29.2242
ltibia 62.0917
lfoot -9.72213 -9.46882
ltoes -3.9486
1853
root 0.738975 15.3827 -2.5744 33.8735 18.7796 8.63705
lowerback 35.5793 -2.04255 9.30501
upperback 10.8505 1.82257 9.54827
thorax -5.91898 0.841721 4.57415
lowerneck -0.418313 -6.13323 4.78977
upperneck -31.5583 -11.247 -8.26761
head -10.8365 -5.08282 -2.77472
rclavicle 6.36111e-015 2.3059e-014
rhumerus 63.2381 -1.2561 -67.4651
rradius 96.2848
rwrist -56.8214
rhand -36.0337 -16.3024
rfingers 7.12502
rthumb -9.14229 -46.0842
lclavicle 6.36111e-015 2.3059e-014
lhumerus -45.8748 -4.48989 72.7039
lradius 117.289
lwrist 19.4054
lhand -33.9637 38.0548
lfingers 7.12502
lthumb -7.14454 67.9142
rfemur -80.0432 -22.8305 20.0262
rtibia 72.8015
rfoot -17.3641 -10.6195
rtoes -14.2958
lfemur -78.0811 -8.45465 -29.6405
ltibia 62.1405
lfoot -9.78061 -9.30949
ltoes -4.17352
1854
root 0.762373 15.3749 -2.58204 33.9854 18.3036 8.75482
lowerback 35.4755 -2.12325 9.53143
upperback 10.936 1.75806 9.47701
thorax -5.76477 0.818021 4.40455
lowerneck -0.408866 -6.01573 4.90287
upperneck -31.7507 -11.1443 -8.46841
head -10.925 -5.02378 -2.88071
rclavicle 1.27222e-014 3.18055e-015
rhumerus 63.8095 -1.76127 -67.3034
rradius 95.7824
rwrist -56.9436
rhand -35.9171 -16.0028
rfingers 7.12502
rthumb -9.02984 -45.7895
lclavicle 1.27222e-014 3.18055e-015
lhumerus -45.6759 -4.46146 72.5387
lradius 117.25
lwrist 19.2659
lhand -34.084 37.8943
lfingers 7.12502
lthumb -7.26063 67.7497
rfemur -80.3102 -22.7536 19.773
rtibia 72.8453
rfoot -17.3694 -10.0152
rtoes -11.126
lfemur -78.1803 -8.3095 -30.0106
ltibia 62.1832
lfoot -9.87038 -9.17144
ltoes -4.35914
1855
root 0.784813 15.3668 -2.58812 34.0939 17.813 8.8981
lowerback 35.4765 -2.19927 9.63652
upperback 10.9816 1.67981 9.39829
thorax -5.69999 0.783964 4.29544
lowerneck -0.424528 -5.85656 4.98521
upperneck -31.9087 -10.9694 -8.64848
head -10.9848 -4.93077 -2.98303
rclavicle 4.77083e-014 7.87187e-014
rhumerus 64.2836 -2.12896 -67.1193
rradius 95.2965
rwrist -57.1506
rhand -35.689 -15.1803
rfingers 7.12502
rthumb -8.80965 -44.9764
lclavicle 4.77083e-014 7.87187e-014
lhumerus -45.5293 -4.39857 72.3412
lradius 117.209
lwrist 19.3152
lhand -34.4482 37.7345
lfingers 7.12502
lthumb -7.61223 67.5775
rfemur -80.5603 -22.6663 19.4782
rtibia 72.8943
rfoot -17.3479 -9.74524
rtoes -10.5479
lfemur -78.2731 -8.18164 -30.3858
ltibia 62.2273
lfoot -9.9554 -9.02702
ltoes -4.42353
1856
root 0.807128 15.3576 -2.5942 34.1567 17.3277 9.01821
lowerback 35.621 -2.26416 9.62055
upperback 10.8787 1.62701 9.42494
thorax -5.86533 0.749463 4.35433
lowerneck -0.435931 -5.718 4.95063
upperneck -31.7995 -10.8364 -8.92047
head -10.9416 -4.84017 -3.09131
rclavicle 5.725e-014 -1.51076e-014
rhumerus 64.3944 -2.23831 -66.795
rradius 95.0642
rwrist -57.2303
rhand -35.7326 -14.5937
rfingers 7.12502
rthumb -8.85178 -44.388
lclavicle 5.725e-014 -1.51076e-014
lhumerus -45.7922 -4.42304 72.4864
lradius 117.349
lwrist 19.6492
lhand -34.9291 37.5836
lfingers 7.12502
lthumb -8.07631 67.4093
rfemur -80.7809 -22.5876 19.2266
rtibia 72.9428
rfoot -17.032 -10.1445
rtoes -14.9483
lfemur -78.3363 -8.04405 -30.746
ltibia 62.2806
lfoot -10.0274 -8.81204
ltoes -4.68414
1857
root 0.828821 15.348 -2.59899 34.3101 16.8813 9.14781
lowerback 35.632 -2.30242 9.63759
upperback 10.6877 1.61506 9.52264
thorax -6.08433 0.731222 4.45584
lowerneck -0.275929 -5.67235 4.71213
upperneck -31.6572 -10.8308 -9.10242
head -10.9135 -4.78974 -3.1104
rclavicle 3.49861e-014 -4.45278e-014
rhumerus 64.3367 -2.42129 -66.4285
rradius 94.9207
rwrist -57.1928
rhand -36.2023 -14.9788
rfingers 7.12502
rthumb -9.30501 -44.7535
lclavicle 3.49861e-014 -4.45278e-014
lhumerus -46.212 -4.49424 72.7341
lradius 117.453
lwrist 19.7278
lhand -35.3383 37.4336
lfingers 7.12502
lthumb -8.47123 67.2437
rfemur -81.1 -22.5627 19.0377
rtibia 72.9891
rfoot -16.8059 -10.2455
rtoes -17.4774
lfemur -78.4925 -7.95037 -31.0757
ltibia 62.3424
lfoot -10.0599 -8.68924
ltoes -4.65203
1858
root 0.84836 15.3417 -2.60317 34.3261 16.424 9.23728
lowerback 35.7147 -2.37295 9.77679
upperback 10.6402 1.58442 9.49358
thorax -6.15307 0.713098 4.36746
lowerneck -0.0724057 -5.57417 4.58436
upperneck -31.8219 -10.744 -9.20944
head -11.0098 -4.71152 -3.13323
rclavicle -2.22639e-014 3.49861e-014
rhumerus 64.4386 -2.80575 -66.2344
rradius 94.7756
rwrist -57.1574
rhand -37.0766 -15.613
rfingers 7.12502
rthumb -10.1485 -45.3482
lclavicle -2.22639e-014 3.49861e-014
lhumerus -46.217 -4.40143 72.5701
lradius 117.297
lwrist 19.3687
lhand -34.8157 37.5005
lfingers 7.12502
lthumb -7.96691 67.3304
rfemur -81.2611 -22.4946 18.8166
rtibia 73.0299
rfoot -16.7386 -9.99815
rtoes -17.5019
lfemur -78.5063 -7.80367 -31.3798
ltibia 62.4079
lfoot -10.135 -8.54474
ltoes -4.74063
1859
root 0.867522 15.3366 -2.60825 34.2993 15.8839 9.39392
lowerback 35.7907 -2.43886 9.87413
upperback 10.715 1.51752 9.3568
thorax -6.07997 0.685655 4.19754
lowerneck -0.304703 -5.49805 4.64547
upperneck -31.8751 -10.6759 -9.33851
head -10.9909 -4.68303 -3.20816
rclavicle 6.36111e-014 -2.06736e-014
rhumerus 64.6942 -3.23316 -66.0789
rradius 94.6153
rwrist -57.202
rhand -37.3287 -15.4614
rfingers 7.12502
rthumb -10.3917 -45.1846
lclavicle 6.36111e-014 -2.06736e-014
lhumerus -45.967 -4.2765 72.2847
lradius 117.108
lwrist 19.0993
lhand -33.7143 37.1726
lfingers 7.12502
lthumb -6.90378 67.04
rfemur -81.3768 -22.4102 18.4714
rtibia 73.0828
rfoot -16.7212 -9.70931
rtoes -17.3718
lfemur -78.4477 -7.61412 -31.7989
ltibia 62.4781
lfoot -10.1942 -8.40617
ltoes -4.79052
1860
root 0.886479 15.3238 -2.61101 34.4218 15.4397 9.49602
lowerback 35.6713 -2.49366 10.1051
upperback 10.7195 1.49194 9.27645
thorax -6.01143 0.677259 4.00192
lowerneck -0.583938 -5.50378 4.65152
upperneck -31.8319 -10.7275 -9.46053
head -10.9328 -4.71026 -3.25778
rclavicle -6.36111e-014 8.42847e-014
rhumerus 64.8703 -3.71868 -65.8553
rradius 94.4297
rwrist -57.2033
rhand -36.9568 -15.252
rfingers 7.12502
rthumb -10.0329 -44.9928
lclavicle -6.36111e-014 8.42847e-014
lhumerus -45.8009 -4.35317 72.2389
lradius 117.073
lwrist 19.0532
lhand -33.2415 37.2129
lfingers 7.12502
lthumb -6.44737 67.0948
rfemur -81.6868 -22.3455 18.2788
rtibia 73.1608
rfoot -16.6244 -9.48603
rtoes -17.3908
lfemur -78.6163 -7.46712 -32.1314
ltibia 62.5846
lfoot -10.2221 -8.334
ltoes -4.60853
1861
root 0.903736 15.3053 -2.61232 34.6138 15.025 9.60138
lowerback 35.4717 -2.54027 10.1667
upperback 10.745 1.41344 9.266
thorax -5.90671 0.643487 3.984
lowerneck -0.647043 -5.37286 4.73832
upperneck -31.9718 -10.642 -9.78323
head -10.9928 -4.64692 -3.40778
rclavicle 2.22639e-014 -4.77083e-014
rhumerus 65.155 -3.9974 -65.6015
rradius 94.3505
rwrist -57.458
rhand -37.2658 -14.3933
rfingers 7.12502
rthumb -10.3311 -44.1195
lclavicle 2.22639e-014 -4.77083e-014
lhumerus -45.6974 -4.25744 72.2621
lradius 117.185
lwrist 19.0145
lhand -33.1711 37.6404
lfingers 7.12502
lthumb -6.37938 67.5244
rfemur -82.111 -22.3009 18.1314
rtibia 73.2707
rfoot -16.5316 -9.28555
rtoes -17.427
lfemur -78.8841 -7.34683 -32.4521
ltibia 62.721
lfoot -10.2608 -8.2335
ltoes -4.43444
1862
root 0.91747 15.2893 -2.61641 34.7602 14.5719 9.6775
lowerback 35.4031 -2.5068 10.097
upperback 10.7126 1.41975 9.29258
thorax -5.9245 0.642038 4.0442
lowerneck -0.677224 -5.2579 4.93344
upperneck -32.0354 -10.5921 -10.2046
head -11.0439 -4.604 -3.60817
rclavicle -6.99722e-014 -1.29608e-013
rhumerus 65.2912 -4.23986 -65.2019
rradius 94.3239
rwrist -57.9295
rhand -37.3404 -12.605
rfingers 7.12502
rthumb -10.403 -42.3277
lclavicle -6.99722e-014 -1.29608e-013
lhumerus -45.6963 -4.29647 72.3206
lradius 117.244
lwrist 19.0875
lhand -33.3393 37.6032
lfingers 7.12502
lthumb -6.5418 67.4822
rfemur -82.4949 -22.1741 17.9687
rtibia 73.3701
rfoot -16.4671 -8.97056
rtoes -15.8679
lfemur -79.1315 -7.15526 -32.7803
ltibia 62.8605
lfoot -10.3583 -8.13394
ltoes -4.4402
